# xmcd
#
# Track frame offsets: 
#        150
#        12460
#        24567
#        37660
#        53424
#        65639
#        82212
#        94879
#        106907
#        121712
#        133565
#        147429
#        160738
#        174258
#        190193
#        203037
#        216801
#        228897
#        241367
#        255239
#
# Disc length: 3569 seconds
#
# Revision: 0
# Processed by: cddbd v1.5.2PL0 Copyright (c) Steve Scherf et al.
# Submitted via: ExactAudioCopy v0.95b4
#
DISCID=020def14
DTITLE=Various Artist - Sparks Present Made To Measure
DYEAR=2006
DGENRE=R&B/Soul
TTITLE0=Jr. Walker and The All Stars - Cleo's Back
TTITLE1=Stevie Wonder - Work Out Stevie, Work Out
TTITLE2=Marvin Gaye - Can I Get A Witness
TTITLE3=Commodores - Brick House
TTITLE4=The Temptations - Get Ready
TTITLE5=Thelma Houston - Don't Leave Me This Way
TTITLE6=The Miracles - Mickey's Monkey
TTITLE7=Martha Reeves and The Vandellas - Dancing In The Street
TTITLE8=The Undisputed Truth - Smiling Faces Sometimes
TTITLE9=Barrett Strong - Money (That's What I Want)
TTITLE10=Gladys Knight and The Pips - The Nitty Gritty
TTITLE11=Kim Weston - Take Me In Your Arms (Rock Me A Little While)
TTITLE12=Jackson 5 - ABC
TTITLE13=Eddie Kendricks - Keep On Truckin' (Part 1)
TTITLE14=The Supremes - Back In My Arms Again
TTITLE15=Jimmy Ruffin - What Becomes Of The Broken Hearted
TTITLE16=Edwin Starr - Agent Double 'O' Soul
TTITLE17=Mary Wells - You Beat Me To The Punch
TTITLE18=The Contours - First I Look At The Purse
TTITLE19=Michael Jackson - Ben
EXTD=
EXTT0=
EXTT1=
EXTT2=
EXTT3=
EXTT4=
EXTT5=
EXTT6=
EXTT7=
EXTT8=
EXTT9=
EXTT10=
EXTT11=
EXTT12=
EXTT13=
EXTT14=
EXTT15=
EXTT16=
EXTT17=
EXTT18=
EXTT19=
PLAYORDER=
